<svg width="36" height="40" viewBox="0 0 36 40" fill="none" xmlns="http://www.w3.org/2000/svg">
<path d="M27.9015 0C23.9355 0 20.7009 3.2667 20.7009 7.27285C20.7009 8.24719 20.8886 9.17778 21.2352 10.0284L12.8117 15.4544C11.4902 13.7961 9.46417 12.727 7.20054 12.727C3.23455 12.727 0 15.9937 0 19.9998C0 24.0056 3.23423 27.2726 7.20054 27.2726C9.47453 27.2726 11.5046 26.2028 12.8258 24.5313L21.2493 29.9576C20.8984 30.8124 20.7009 31.7462 20.7009 32.7272C20.7009 36.733 23.9352 40 27.9015 40C31.8675 40 35.102 36.7333 35.102 32.7272C35.102 28.7213 31.8678 25.4543 27.9015 25.4543C25.543 25.4543 23.4502 26.6157 22.1355 28.3948L13.7683 22.9828C14.1761 22.0719 14.4012 21.0617 14.4012 19.9999C14.4012 18.9301 14.1679 17.919 13.7542 17.0027L22.1359 11.6192C23.4508 13.3955 25.5456 14.5454 27.9018 14.5454C31.8678 14.5454 35.102 11.2784 35.102 7.2726C35.102 3.26678 31.8678 8.11237e-05 27.9018 8.11237e-05L27.9015 0ZM27.9015 1.81801C30.8946 1.81801 33.3017 4.24924 33.3017 7.27244C33.3017 10.2956 30.8946 12.7269 27.9015 12.7269C24.9083 12.7269 22.5013 10.2956 22.5013 7.27244C22.5013 4.24924 24.9083 1.81801 27.9015 1.81801ZM7.20035 14.5452C10.1935 14.5452 12.6006 16.9764 12.6006 19.9996C12.6006 23.0228 10.1935 25.4541 7.20035 25.4541C4.20721 25.4541 1.80014 23.0228 1.80014 19.9996C1.80014 16.9764 4.20721 14.5452 7.20035 14.5452ZM27.9015 27.2724C30.8946 27.2724 33.3017 29.7036 33.3017 32.7268C33.3017 35.75 30.8946 38.1813 27.9015 38.1813C24.9083 38.1813 22.5013 35.75 22.5013 32.7268C22.5013 31.8045 22.7037 30.9332 23.12 30.1843C23.1693 30.0955 23.2025 30.0179 23.2465 29.9427C24.182 28.3403 25.9179 27.2724 27.9015 27.2724L27.9015 27.2724Z" fill="#666666"/>
</svg>
