<svg width="61" height="61" viewBox="0 0 61 61" fill="none" xmlns="http://www.w3.org/2000/svg">
<path d="M37.7785 33.8053L37.021 12.5229C37.0207 12.0765 36.7601 11.6671 36.3878 11.4437C36.1645 11.2945 35.9413 11.2202 35.6433 11.22L13.6177 11.8759C12.9108 11.9128 12.316 12.5076 12.3533 13.2146L13.1108 34.497C13.1486 35.2039 13.7441 35.7994 14.4881 35.8001L36.5138 35.1442C37.2212 35.1073 37.8159 34.5126 37.7784 33.8054L37.7785 33.8053ZM15.0826 33.7167L14.4377 13.8854L35.0123 13.2658L35.6945 33.1343L15.0826 33.7167Z" fill="#666666"/>
<path d="M41.3259 54.3081L51.3598 35.5625C51.6944 34.9303 51.4707 34.1116 50.8378 33.7764L41.1608 28.5616C40.6768 28.3007 40.0445 28.4864 39.7843 28.97C39.524 29.4536 39.7105 30.0862 40.1944 30.347L49.2012 35.1895L39.8362 52.6705L21.6734 42.9111L24.0144 38.5596L24.0515 38.5225C24.2374 38.1133 24.1997 37.6295 23.8276 37.3316C23.3064 36.8104 22.5251 36.996 22.228 37.5912L19.5522 42.575C19.2176 43.2073 19.4412 44.026 20.0742 44.3612L39.5397 54.8282C40.1727 55.1628 40.9911 54.9402 41.3257 54.3079L41.3259 54.3081Z" fill="#666666"/>
<path d="M20.5413 16.8657C20.5042 16.8286 20.5042 16.8286 20.4297 16.8283C20.1319 16.6794 19.8342 16.6047 19.4994 16.6419C19.0157 16.6789 18.532 16.8645 18.2348 17.2364C17.9002 17.571 17.7145 18.0544 17.7519 18.5384C17.7896 19.5431 18.6461 20.3248 19.6507 20.2883C20.1344 20.2512 20.618 20.0657 20.9152 19.6937C21.2498 19.3592 21.4356 18.8758 21.3982 18.3918C21.3975 17.7219 21.0995 17.2008 20.5413 16.8657L20.5413 16.8657Z" fill="#666666"/>
<path d="M30.5955 30.4151C31.0793 30.378 31.5629 30.1925 31.8601 29.8205C32.1947 29.4859 32.3804 29.0025 32.343 28.5185C32.3426 27.9231 32.0075 27.365 31.449 27.0295C31.4119 26.9924 31.3745 26.955 31.3374 26.9921C31.0396 26.8432 30.7419 26.7685 30.4445 26.7683C29.9607 26.8054 29.4771 26.9909 29.1799 27.3629C28.8453 27.6975 28.6595 28.1809 28.697 28.6649C28.6976 29.6324 29.5911 30.4518 30.5955 30.415L30.5955 30.4151Z" fill="#666666"/>
<path d="M30.0657 16.202C29.0611 16.2384 28.2805 17.0939 28.3182 18.0985C28.3559 18.5823 28.542 19.0662 28.9144 19.3638C29.2494 19.6988 29.733 19.8852 30.217 19.8484C30.8124 19.8488 31.3701 19.5143 31.742 18.9934C31.8905 18.6958 32.0392 18.3238 32.0017 17.9889C31.964 17.5051 31.7779 17.0213 31.4055 16.7236C31.0328 16.3515 30.5492 16.1651 30.0657 16.2019L30.0657 16.202Z" fill="#666666"/>
<path d="M26.8705 23.418C26.8329 22.9342 26.6467 22.4503 26.2744 22.1527C26.1627 22.041 26.014 21.9664 25.8649 21.8921C25.5672 21.7432 25.2694 21.6685 24.972 21.6684C23.9674 21.7048 23.1868 22.5603 23.2245 23.5649C23.2622 24.0487 23.4483 24.5326 23.8207 24.8302C24.1557 25.1652 24.6393 25.3516 25.1233 25.3148C25.7186 25.3152 26.2764 24.9807 26.5737 24.4601C26.7968 24.1623 26.8707 23.7901 26.8705 23.418L26.8705 23.418Z" fill="#666666"/>
<path d="M21.2179 27.5816C20.8828 27.2466 20.3992 27.0602 19.9153 27.097C18.9106 27.1335 18.13 27.9889 18.1678 28.9936C18.2054 29.4774 18.3916 29.9612 18.7639 30.2589C19.0989 30.5939 19.5825 30.7803 20.0665 30.7434C20.6619 30.7438 21.2196 30.4094 21.517 29.8887C21.7029 29.5538 21.8142 29.2191 21.8137 28.8472C21.8137 28.4005 21.5902 27.954 21.2178 27.5816L21.2179 27.5816Z" fill="#666666"/>
<path d="M43.4349 35.3715C42.5418 34.9246 41.4258 35.2216 40.9426 36.0767C40.4967 36.9692 40.8322 38.0485 41.7256 38.57C42.6186 39.0169 43.7347 38.7199 44.1805 37.8274C44.664 36.9721 44.3285 35.8185 43.4349 35.3716L43.4349 35.3715Z" fill="#666666"/>
<path d="M35.9999 45.3381C35.5541 46.2306 35.8895 47.31 36.7829 47.8314C37.6763 48.3529 38.792 47.9814 39.2378 47.0889C39.6837 46.1964 39.3482 45.1171 38.4548 44.5956C37.6362 44.1484 36.4831 44.4825 35.9999 45.3381Z" fill="#666666"/>
<path d="M29.1502 39.604C28.2572 39.1571 27.1411 39.4541 26.6953 40.3465C26.2494 41.239 26.5849 42.3184 27.4409 42.8024C28.3339 43.2494 29.45 42.9524 29.8958 42.0599C30.3788 41.2045 30.0433 40.051 29.1502 39.604Z" fill="#666666"/>
</svg>
