<svg width="40" height="28" viewBox="0 0 40 28" fill="none" xmlns="http://www.w3.org/2000/svg">
<path d="M11.9812 21.712C11.7421 22.0117 11.385 22.1748 11.0179 22.1799L11 22.1799C10.7353 22.1799 10.4695 22.0977 10.2443 21.9287C10.2442 21.9287 10.2441 21.9286 10.244 21.9285L0.974953 14.9442L0.974712 14.944C0.672965 14.717 0.5 14.3687 0.5 14.0036C0.5 13.6393 0.672454 13.2917 0.975071 13.063C0.975188 13.0629 0.975306 13.0628 0.975424 13.0627L10.2447 6.07827C10.2447 6.07827 10.2447 6.07826 10.2447 6.07826C10.7868 5.66982 11.5658 5.77039 11.9808 6.29485C12.3885 6.81174 12.2942 7.55394 11.7591 7.95828C11.759 7.95829 11.759 7.95831 11.759 7.95832C11.7589 7.9584 11.7588 7.95848 11.7587 7.95856L4.26652 13.6044L3.73662 14.0037L4.26652 14.403L11.7591 20.0491L11.7591 20.0491C12.2939 20.4521 12.3897 21.1939 11.9812 21.712Z" fill="#666666" stroke="#666666"/>
<path d="M39.5 14.0023C39.5 14.3669 39.3274 14.7145 39.0246 14.9433L29.756 21.9272C29.7559 21.9273 29.7558 21.9273 29.7557 21.9274C29.5297 22.097 29.2636 22.1798 29 22.1798L28.9827 22.1798C28.614 22.1749 28.2566 22.0121 28.0196 21.7117L28.0195 21.7116C27.6114 21.1947 27.7057 20.4521 28.2411 20.0477C28.2412 20.0476 28.2412 20.0476 28.2413 20.0475L35.7334 14.4017L36.2633 14.0024L35.7334 13.6031L28.2409 7.95698L28.2409 7.95696C27.7057 7.55374 27.6102 6.81138 28.0195 6.29323L28.0195 6.29315C28.4334 5.76898 29.2131 5.66764 29.7549 6.07668L29.7553 6.07697L39.025 13.0617L39.0253 13.0619C39.327 13.289 39.5 13.6373 39.5 14.0023Z" fill="#666666" stroke="#666666"/>
<path d="M22.1836 1.38684L22.1836 1.38674C22.3562 0.757056 23.028 0.36657 23.6954 0.541999L23.696 0.542151C24.3596 0.715723 24.736 1.37332 24.5647 1.99839L17.8132 26.6134C17.6684 27.1405 17.1753 27.5 16.6232 27.5C16.5184 27.5 16.4099 27.4864 16.3002 27.4581C15.6369 27.2844 15.2607 26.627 15.432 26.002L22.1836 1.38684Z" fill="#666666" stroke="#666666"/>
</svg>
