<svg width="26" height="42" viewBox="0 0 26 42" fill="none" xmlns="http://www.w3.org/2000/svg">
<path d="M1.64656 6.84562L24.3531 6.84562C24.8295 6.84562 25.2496 6.48385 25.2496 5.99693C25.2496 5.51053 24.8296 5.14824 24.3531 5.14824L1.64656 5.14824C1.16994 5.14824 0.75 5.51053 0.75 5.99693C0.75 6.48333 1.16996 6.84562 1.64656 6.84562Z" fill="#666666" stroke="#666666" stroke-width="0.5"/>
<path d="M1.64656 35.5913L24.3531 35.5913C24.8297 35.5913 25.2496 35.229 25.2496 34.7426C25.2496 34.2562 24.8296 33.8939 24.3531 33.8939L1.64656 33.8939C1.16994 33.8939 0.75 34.2562 0.75 34.7426C0.75 35.229 1.16996 35.5913 1.64656 35.5913Z" fill="#666666" stroke="#666666" stroke-width="0.5"/>
<path d="M10.4503 38.4332L15.5488 38.4332C16.0254 38.4332 16.4453 38.0709 16.4453 37.5845C16.4453 37.0981 16.0254 36.7358 15.5488 36.7358L10.4503 36.7358C9.97365 36.7358 9.55371 37.0981 9.55371 37.5845C9.55371 38.0709 9.97367 38.4332 10.4503 38.4332Z" fill="#666666" stroke="#666666" stroke-width="0.5"/>
<path d="M2.77342 2.44696H3.02342L3.02342 2.44586L23.2277 2.44586C23.3723 2.44586 23.4571 2.55097 23.4571 2.63975L23.4571 39.3584C23.4571 39.4472 23.3723 39.5523 23.2277 39.5523L2.77342 39.5523C2.62888 39.5523 2.54405 39.4472 2.54405 39.3584L2.54405 2.64084C2.54405 2.55206 2.62888 2.44696 2.77342 2.44696ZM2.77342 41.25L23.2277 41.25C24.3245 41.25 25.2502 40.4199 25.2502 39.3587L25.2502 2.6412C25.2502 1.58053 24.3245 0.749969 23.2277 0.749969L2.77342 0.749969C1.67662 0.749969 0.750977 1.5805 0.750977 2.6412L0.750978 39.3587C0.750978 40.4194 1.6766 41.25 2.77342 41.25Z" fill="#666666" stroke="#666666" stroke-width="0.5"/>
</svg>
